<?xml version="1.0" encoding="utf-8"?>
<svg width="900" height="900" xmlns="http://www.w3.org/2000/svg">
  <defs>
    <linearGradient id="a">
      <stop offset="0.5" stop-color="#111"/>
      <stop offset="1" stop-color="#888"/>
    </linearGradient>
  </defs>
  <g stroke="#666" stroke-width="16" stroke-linecap="round" stroke-linejoin="round" fill="url(#a)" transform="translate(20,0)">
    <path d="M244 825l-50-166 433 1-49 170-334-5z"/>
    <path d="M613 716a633 633 0 0 0-403 0c13 31 16 93 16 93 101-28 272-27 372 4 0 0 2-66 15-97M195 698c122-53 313-54 436 0 12-105 50-234 122-327-54 21-134 158-180 184-37-76 35-274 63-316-47 28-146 203-175 285-43-94-33-271-34-345-32 69-73 229-78 342-81-61-109-225-131-290-12 94 9 257 23 323A907 907 0 0 1 75 374c65 155 89 202 120 324zM245 825c88 11 232 15 333 5-57-26-260-25-333-5M846 352c2-14-13-18-27-37-20 8-43 17-59 40 41-8 60 4 86-3M715 206c-5-6-2-16-40-37l-49 61c27-9 71-21 89-24M475 83c-9 0-35 4-51 12-5 12-2 48 0 77 15-25 49-67 51-89M227 155c-11-12-23-11-51-15 1 34 21 43 33 70 15-25 13-26 18-55M50 290c-13 3-14 30-19 44 16 17 31 26 44 52 14-25-9-77-25-96z"/>
    <circle cx="87" cy="383" r="50" style="fill: rgb(251, 12, 12);"/>
    <circle cx="211" cy="231" r="50" style="fill: rgb(251, 12, 12);"/>
    <circle cx="422" cy="179" r="50" style="fill: rgb(251, 12, 12);"/>
    <circle cx="630" cy="238" r="50" style="fill: rgb(251, 12, 12);"/>
    <circle cx="754" cy="365" r="50" style="fill: rgb(251, 12, 12);"/>
  </g>
</svg>